<?xml version="1.0" standalone="no"?>
<!DOCTYPE svg PUBLIC "-//W3C//DTD SVG 20010904//EN"
 "http://www.w3.org/TR/2001/REC-SVG-20010904/DTD/svg10.dtd">
<svg version="1.0" xmlns="http://www.w3.org/2000/svg"
 width="110.000000pt" height="105.000000pt" viewBox="0 0 110.000000 105.000000"
 preserveAspectRatio="xMidYMid meet">

<g transform="translate(0.000000,105.000000) scale(0.100000,-0.100000)"
fill="#000000" stroke="none">
<path d="M292 887 l-142 -142 145 -145 145 -145 37 38 38 37 -85 85 -85 85
211 0 c206 0 211 -1 262 -26 85 -42 140 -125 149 -224 8 -85 -18 -152 -82
-216 -82 -82 -94 -84 -507 -84 l-348 0 0 -56 0 -55 383 3 382 3 67 32 c85 40
151 106 191 191 28 60 32 77 32 157 -1 70 -6 103 -24 147 -31 81 -106 159
-189 200 l-66 33 -213 3 c-117 2 -213 6 -213 10 0 4 30 37 67 74 l67 68 -34
35 c-19 19 -36 35 -40 35 -3 0 -69 -64 -148 -143z"/>
</g>
</svg>
